<svg xmlns="http://www.w3.org/2000/svg" viewBox="0 0 670.573 539">
  <defs>
    <style>
      .cls-1 {
        fill: #F2F3F3;
      }
    </style>
  </defs>
  <path id="anoa" class="cls-1" d="M.272,472.62a1.885,1.885,0,0,1,1.211-1.913c3.507-1.785,5.1-4.846,5.929-8.48.638-2.805,1.339-5.547,2.168-8.288,2.869-9.755,6.376-19.255,9.563-28.818,3.379-10.265,6.95-20.4,10.839-30.476,3.762-9.755,7.778-19.446,10.392-29.583,1.594-6.439,2.359-13.134,4.59-19.446,1.02-3,1.849-6.184,4.654-8.225-.127-1.211.829-1.849,1.466-2.614a32.515,32.515,0,0,1,7.2-5.674c5.228-3.315,10.52-6.694,14.792-11.285,5.611-4.335,9.819-9.946,13.708-15.748C95.4,289.256,98.139,274.656,99.1,259.609c1.02-15.493.765-30.986,1.275-46.479.382-10.265.319-20.53,3-30.6h0a73.8,73.8,0,0,1,5.228-22.442c1.02-5.419,3.953-9.946,7.268-14.154,6.631-8.48,15.684-13.389,25.63-16.832,6.5-2.231,13.07-4.272,20.02-4.463h0a61.667,61.667,0,0,1,19.956-.319c21.8,2.933,43.673,4.782,65.606,6.121,20.275,1.211,40.549,1.849,60.824,2.614,1.53.064,3.188-.191,4.654.765.638-.956,1.53-.446,2.3-.446a88.712,88.712,0,0,0,16.385-1.658c11.923-2.487,23.144-7.332,34.62-11.157,9.181-3.06,18.489-5.611,28.244-5.419,5.292.128,10.839-.51,15.557,3,3.188,1.211,4.973,4.144,7.651,5.993.893.638,2.231,2.04,2.805,1.275,1.4-1.976,2.168-.255,3,.191a20.309,20.309,0,0,1,3,2.231c.446,0,.893-.893.7-1.4-.128-.956-1.53-1.211-1.211-2.678a24.8,24.8,0,0,1,10.2,5.674c1.785,1.339,3.634,2.742,5.419,4.08a3.7,3.7,0,0,1,1.339.638,1.554,1.554,0,0,0,1.4.383,5.155,5.155,0,0,1-.446-1.4c2.933-.829,5.037.956,7.2,2.3,4.59,2.933,8.033,7.2,11.731,11.094,2.3,2.423,4.4,5.164,7.523,6.694,1.4.638,3.06.7,3.825-.383.829-1.148-.829-1.913-1.53-2.742-.446-.51-.956-.893-1.339-1.4-.446-.574-.956-1.148-.574-1.976.446-.893,1.275-.638,1.976-.7,2.869-.128,4.973,1.339,7.013,3.252,1.849,1.721,3.252,3.953,5.674,5.037.829.383,6.248-1.084,8.225-1.275a30.755,30.755,0,0,0,12.751-3.507c4.59-2.55,8.8-5.419,11.922-9.691.893-1.211,6.057-2.678,7.013-3.634,2.04-2.1,3.188-5.483,6.248-6.057,3.634-.765,5.611-3,7.332-5.866a3.682,3.682,0,0,1,2.359-1.976h0c1.976-2.168,4.654-2.168,7.268-2.231,3.124-.064,6.312.383,9.691-.7-.638-.7-1.02-1.211-1.466-1.658-1.4-1.275-2.742-2.614-4.208-3.889-8.607-7.46-12.433-17.6-16.13-27.925-.446-1.211-.446-2.678.893-3.379,1.211-.574,2.232.319,3.06,1.148a34.5,34.5,0,0,1,5.419,7.4c.638-.127.446-.7.638-1.084-.255-3.379-.383-6.758-.765-10.074-.638-5.164-.064-10.584-3.443-15.238-3.889-5.356-8.033-10.52-12.305-15.62h0Q516.224,30.659,502.8,12.361c-1.594-2.231-3.379-4.335-4.144-7.077-.382-1.466-.829-3.124.7-3.953,1.4-.765,2.678.383,3.57,1.339,4.335,4.527,26.969,30.157,29.838,31.3-.255-.956-.446-1.53-.638-2.1-3.315-9.117-7.46-17.852-10.2-27.16-.446-1.53-1.339-3.57.574-4.59,2.1-1.084,3.379.829,4.208,2.359,1.976,3.379,19.573,34.174,27.862,44.63,5.8,7.268,10.265,15.493,16.194,22.7h0a47.507,47.507,0,0,0,6.057,7.715c6.567,7.4,13.261,14.6,21.358,20.4h0c3.953,3.825,8.671,6.631,12.943,10.074,3.315,2.678,4.208,2.55,7.4-.446a11.16,11.16,0,0,1,.446,2.805c-.383,4.59,1.976,7.778,5.164,10.711,1.977,1.849,4.336,3.379,5.611,5.929,2.1.893,3.06,2.869,4.144,4.59,1.721,2.805,3,5.866,4.782,8.607,10.839,16.832,18.936,35.194,29.137,52.344a19.312,19.312,0,0,1,2.55,13.134c-.446,3.124-1.785,5.993-4.782,6.949a28.208,28.208,0,0,0-6.121,3.315c-7.013,4.144-13.9,2.55-20.53-1.02-6.694-3.57-12.688-8.288-18.936-12.56-2.3-.319-4.017-1.849-5.738-3.124h0l-4.4-2.678h0a10.514,10.514,0,0,1-3.443-2.3h0a33.166,33.166,0,0,1-8.033-5.929h0l-1.339-1.148h0c-2.1-1.211-3.825-3.315-6.758-3.188.956,3.443-.956,5.228-3.507,6.5-2.869,1.4-5.8,2.678-8.161,4.782-8.99,8.1-16.385,17.469-19.446,29.2-3.889,15.047-7.46,30.221-7.523,45.969,0,.255-.255.51-.446.893-2.423-1.275-3.06-3.953-5.1-6.312.255,2.933.574,5.1.7,7.268.064,1.53-.446,3.507-2.1,3.379-3.634-.319-3.252,2.1-3.634,4.272-.765,4.909-1.658,9.819-4.208,14.218-1.211,2.1-2.805,3.7-5.356,1.594-.893-.765-1.211-.383-1.466.446h0c.127,1.594-.7,3-1.211,4.463-.51,1.339-1.594,1.721-2.678.829a96.741,96.741,0,0,1-9.372-8.288h0c-3.379-1.976-4.845-5.164-5.674-8.8-.574-2.678-1.849-5.1-4.782-5.228-8.862-.574-17.087,1.02-23.4,7.97-.128.255-1.084,1.339-1.275,1.785-.128.829-3.188,4.718-3.889,5.993-1.02,1.976-2.04,3.953-3,5.866a47.666,47.666,0,0,1-3.124,5.674c-1.913,1.785-7.332,7.013-8.416,7.523a18.7,18.7,0,0,1-1.4,1.275c-5.866,4.718-7.651,7.013-4.336,17.342,2.487,7.651,6.567,14.6,10.01,21.869,3.762,7.906,7.97,15.62,10.074,24.228,2.1,8.671,2.3,17.151-3.7,24.674h0a15.025,15.025,0,0,1-4.973,5.037h0c-3.124,2.678-6.822,4.909-9.309,8.1-8.99,11.54-17.087,23.718-22.7,37.3-3.124,7.651-7.141,14.664-14.409,19.127h0a10.093,10.093,0,0,1-4.909,3.315c-2.678.956-3.507,2.678-2.742,5.419,4.4,15.62,7.46,31.751,17.661,45.076a4.15,4.15,0,0,1,.638,4.718,16.254,16.254,0,0,1-4.208,2.1c-6.312,2.232-25.694,5.164-27.926,5.228-2.933.064-5.547-2.1-5.037-4.208a19.612,19.612,0,0,1,.893-3.825,11.454,11.454,0,0,1,.638-5.292c3.06-6.567.383-11.667-4.208-16.194-1.211-1.211-2.487-2.423-2.487-4.272,0-5.611-.829-11.158,0-16.832,1.721-12.05,4.017-24.036,4.208-36.278V440.423c0-9.819-.383-19.573-3.57-28.882A41.161,41.161,0,0,1,389,395.666a55,55,0,0,0-.956-13.325c-3.507-18.553-4.527-37.425-7.141-56.106-.51-3.507-1.084-5.356-5.037-6.312-12.433-2.869-24.738-6.121-37.616-5.037-7.4.638-14.855.765-22.251,1.148-17.6.829-35.066,1.02-51.579-6.439-1.721-.638-20.083-10.137-20.593-10.775-4.4-.638-20.912,23.016-21.741,26.077-3.507,12.433-7.2,24.8-13.708,36.023a86.216,86.216,0,0,0-9.564,24.674c-2.805,12.305-4.718,24.546-.893,36.979a209.118,209.118,0,0,0,10.137,26.14c1.785,3.953,3.953,7.715,5.929,11.54,7.906,15.174,14.855,30.922,25.758,44.375,6.567,8.033,12.56,16.577,21.231,22.634,1.4.956,3.379,1.658,3,3.634-.319,1.849-2.168,2.742-3.953,3.315-.7.191-11.285,1.4-11.667,1.466-1.275.446-7.077-1.084-8.352-1.53h0c-3.188-.446-9.946-6.822-10.137-7.268A136.8,136.8,0,0,0,219.6,516.166c-.191-.128-1.084-.383-1.339-.51h-4.4c-5.547.829-7.077-6.248-7.141-6.5-.191-1.275-.319-2.614.638-3.634-.064-.064-2.805-6.5-3.06-6.694l-2.1-4.782h0a7.325,7.325,0,0,1-1.658-3.379h0c-7.778-18.872-17.916-36.66-26.587-55.086-7.906-16.7-15.684-33.472-22.315-50.75-1.084-2.805,1.084-16.449,1.785-17.406,5.228-7.4,8.543-15.684,11.667-24.164,4.59-12.56,6.886-25.248,3.315-38.509-1.211-4.463-1.148-4.463-4.909-2.1-1.4.893-3,1.594-4.017,3.06-3.443,3.634-6.95,7.2-11.413,9.691a80.51,80.51,0,0,1-12.688,7.778c-10.584,5.483-46.1,40.932-47.435,41.251-1.913,1.466-3.825,3-5.738,4.463-6.5,6.184-13.261,12.05-19,19-7.778,9.436-14.218,19.637-18.043,31.3a2.5,2.5,0,0,1-1.02,2.614,9.589,9.589,0,0,0-.638,1.084c-6.312,18.489-10.329,37.68-14.664,56.68-2.487,10.711,0,21.295,2.232,31.751a3.807,3.807,0,0,1-1.211,4.144c-3.634,1.339-27.415-4.909-27.033-7.013-1.466-3.762.7-17.406.956-17.788.7-3.443-.51-6.5-2.168-9.372A13.313,13.313,0,0,1,.272,472.62ZM546.03,94.479Zm71.408,104.689ZM442.744,408.226a9.581,9.581,0,0,0,2.678-4.4c6.312-9.564,5.8-19.637-1.4-28.372a59.85,59.85,0,0,0-10.074-10.01c-1.658-2.487-3.953-4.335-6.121-6.312a39.749,39.749,0,0,1-5.483-6.376,5.024,5.024,0,0,0-2.3-3c-2.678,8.543-2.55,17.151-1.849,25.822.638,8.352,1.913,16.641,1.721,25.056a47.238,47.238,0,0,1-3.188,17.087c-3.315,7.842-4.527,16-4.654,24.483,0,1.275-.191,2.487-.383,4.4C425.274,435.9,434.073,422.125,442.744,408.226Z" transform="translate(-0.023 0.199)"/>
</svg>
