<?xml version="1.0" encoding="utf-8"?>
<!-- Generator: Adobe Illustrator 22.1.0, SVG Export Plug-In . SVG Version: 6.00 Build 0)  -->
<svg version="1.1" id="Layer_1" xmlns="http://www.w3.org/2000/svg" xmlns:xlink="http://www.w3.org/1999/xlink" x="0px" y="0px"
	 viewBox="0 0 24 24" style="enable-background:new 0 0 24 24;" xml:space="preserve">
<style type="text/css">
	.st0{opacity:0.7;}
	.st1{fill:#ffffff;}
</style>
<g id="cuti" transform="translate(-0.012 0.019)" class="st0">
	<path id="Path_21" class="st1" d="M9.9,12l1.8,6.4c0.6-0.2,1.3-0.3,1.9-0.4l-1.8-6.5c0.9-1,2-1.8,3.3-2.2c1.7-0.5,3.5-0.3,5,0.4
		c-1.2-4.8-6-7.9-10.9-6.9l-0.3-1C8.8,1.2,8.2,0.9,7.7,1C7.2,1.2,6.9,1.8,7,2.3l0.3,1.1c-4.5,2.1-6.8,7.1-5.4,11.9
		c0.9-1.6,2.4-2.7,4.1-3.2C7.2,11.7,8.6,11.6,9.9,12z"/>
	<path id="Path_22" class="st1" d="M4.5,23h18v-5C12.1,18,4.5,22,4.5,23z"/>
</g>
</svg>
