<svg xmlns="http://www.w3.org/2000/svg" xmlns:xlink="http://www.w3.org/1999/xlink" width="24" height="24" viewBox="0 0 24 24">
  <defs>
    <clipPath id="clip-path">
      <rect id="Rectangle_132" data-name="Rectangle 132" width="24" height="24" transform="translate(4386 1112)" fill="#ff7675" stroke="#707070" stroke-width="1"/>
    </clipPath>
  </defs>
  <g id="Mask_Group_14" data-name="Mask Group 14" transform="translate(-4386 -1112)" clip-path="url(#clip-path)">
    <g id="icons8_PDF" transform="translate(4390.5 1114.25)">
      <path id="Path_548" data-name="Path 548" d="M6,3V8.25H7.5V4.5h12V8.25H21V3ZM7.5,9.75v6H9v-1.5a2.25,2.25,0,1,0,0-4.5Zm4.5,0v6h1.875a1.873,1.873,0,0,0,1.875-1.875v-2.25A1.873,1.873,0,0,0,13.875,9.75Zm4.5,0v6H18V13.5h1.5V12H18v-.75h2.25V9.75ZM9,11.25a.75.75,0,0,1,0,1.5Zm4.5,0h.375a.454.454,0,0,1,.375.375v2.25a.454.454,0,0,1-.375.375H13.5Zm-7.5,6V22.5H21V17.25H19.5V21H7.5V17.25Z" transform="translate(-6 -3)" fill="#ff7675"/>
    </g>
  </g>
</svg>
