<?xml version="1.0" encoding="utf-8"?>
<!-- Generator: Adobe Illustrator 22.1.0, SVG Export Plug-In . SVG Version: 6.00 Build 0)  -->
<svg version="1.1" id="monitoring_absen" xmlns="http://www.w3.org/2000/svg" xmlns:xlink="http://www.w3.org/1999/xlink" x="0px"
	 y="0px" viewBox="0 0 24 24" style="enable-background:new 0 0 24 24;" xml:space="preserve">
<style type="text/css">
	.st0{fill:none;}
</style>
<path id="Path_386" class="st0" d="M0,0h24v24H0V0z"/>
<g id="Group_340" transform="translate(1.5 2)">
	<path id="Path_457" d="M19,1.9h-2.9V0h-1.9v5.7h1.9V3.8H19v14.3H1.9V3.8h1.9V1.9H1.9C0.8,1.9,0,2.8,0,3.8v14.3c0,1,0.9,1.9,1.9,1.9
		H19c1,0,1.9-0.9,1.9-1.9V3.8C20.9,2.8,20.1,1.9,19,1.9z"/>
	<path id="Path_458" d="M6.7,3.8h6.7V1.9H6.7V0H4.8v5.7h1.9V3.8z"/>
	<rect id="Rectangle_55" x="3.8" y="7.6" width="3.8" height="3.8"/>
	<rect id="Rectangle_56" x="8.6" y="7.6" width="3.8" height="3.8"/>
	<rect id="Rectangle_57" x="13.3" y="7.6" width="3.8" height="3.8"/>
	<rect id="Rectangle_58" x="3.8" y="12.4" width="3.8" height="3.8"/>
	<rect id="Rectangle_59" x="8.6" y="12.4" width="3.8" height="3.8"/>
</g>
</svg>
