<svg id="pdf" xmlns="http://www.w3.org/2000/svg" viewBox="0 0 20 20">
  <defs>
    <style>
      .cls-1 {
        fill: none;
      }

      .cls-2 {
        fill: #ff7675;
      }
    </style>
  </defs>
  <path id="Path_110" data-name="Path 110" class="cls-1" d="M0,0H20V20H0Z"/>
  <path id="Path_111" data-name="Path 111" class="cls-2" d="M19.125,2H7.875A1.881,1.881,0,0,0,6,3.875v11.25A1.881,1.881,0,0,0,7.875,17h11.25A1.881,1.881,0,0,0,21,15.125V3.875A1.881,1.881,0,0,0,19.125,2ZM11.156,9.031A1.4,1.4,0,0,1,9.75,10.437H8.813v1.875H7.406V6.688H9.75a1.4,1.4,0,0,1,1.406,1.406Zm4.688,1.875a1.4,1.4,0,0,1-1.406,1.406H12.094V6.688h2.344a1.4,1.4,0,0,1,1.406,1.406Zm3.75-2.812H18.188v.937h1.406v1.406H18.188v1.875H16.781V6.688h2.813ZM8.813,9.031H9.75V8.094H8.813ZM13.5,10.906h.938V8.094H13.5Z" transform="translate(-3.5 0.5)"/>
</svg>
