<?xml version="1.0" encoding="utf-8"?>
<!-- Generator: Adobe Illustrator 21.0.0, SVG Export Plug-In . SVG Version: 6.00 Build 0)  -->
<svg version="1.1" id="penilaian_etika" xmlns="http://www.w3.org/2000/svg" xmlns:xlink="http://www.w3.org/1999/xlink" x="0px"
	 y="0px" viewBox="0 0 24 24" style="enable-background:new 0 0 24 24;" xml:space="preserve">
<style type="text/css">
	.st0{fill:none;}
	.st1{fill:#899093;}
</style>
<path id="Path_386" class="st0" d="M0,0h24v24H0V0z"/>
<path id="Path_459" class="st1" d="M22.3,8.4C22.1,8.1,21.8,8,21.5,8h-6V4c0-0.5-0.4-1-0.9-1h-0.1h-3c-0.4,0-0.8,0.2-0.9,0.6L7.8,10
	H7.5c0-0.5-0.4-1-0.9-1H6.5h-4c-0.5,0-1,0.4-1,0.9V10v10c0,0.5,0.4,1,0.9,1h0.1h4c0.5,0,1-0.4,1-0.9V20v-0.5l3.6,1.5h8.4
	c0.5,0,0.9-0.3,1-0.8l2-11C22.5,8.9,22.5,8.6,22.3,8.4z M5.5,19h-2v-8h2V19z M18.7,19h-7l-4.2-1.7V12h1c0.4,0,0.8-0.2,0.9-0.6
	L12.2,5h1.3v4c0,0.5,0.4,1,0.9,1h0.1h5.8L18.7,19z"/>
</svg>
