<?xml version="1.0" encoding="utf-8"?>
<!-- Generator: Adobe Illustrator 21.0.0, SVG Export Plug-In . SVG Version: 6.00 Build 0)  -->
<svg version="1.1" id="penilaian_kinerja" xmlns="http://www.w3.org/2000/svg" xmlns:xlink="http://www.w3.org/1999/xlink" x="0px"
	 y="0px" viewBox="0 0 24 24" style="enable-background:new 0 0 24 24;" xml:space="preserve">
<style type="text/css">
	.st0{fill:none;}
	.st1{fill:#899093;}
</style>
<path id="Path_386" class="st0" d="M0,0h24v24H0V0z"/>
<g id="Group_339" transform="translate(4 2)">
	<path id="Path_454" class="st1" d="M7,6.6L5.7,5.3L4.3,6.7L7,9.4l4.7-4.7l-1.4-1.4L7,6.6z"/>
	<path id="Path_455" class="st1" d="M7,13.6l-1.3-1.3l-1.4,1.4L7,16.4l4.7-4.7l-1.4-1.4L7,13.6z"/>
	<path id="Path_456" class="st1" d="M14,0H2C0.9,0,0,0.9,0,2v16c0,1.1,0.9,2,2,2h12c1.1,0,2-0.9,2-2V2C16,0.9,15.1,0,14,0z M2,18V2
		h12v16H2z"/>
</g>
</svg>
