<?xml version="1.0" encoding="utf-8"?>
<!-- Generator: Adobe Illustrator 21.0.0, SVG Export Plug-In . SVG Version: 6.00 Build 0)  -->
<svg version="1.1" id="rekap_bulanan" xmlns="http://www.w3.org/2000/svg" xmlns:xlink="http://www.w3.org/1999/xlink" x="0px"
	 y="0px" viewBox="0 0 24 24" style="enable-background:new 0 0 24 24;" xml:space="preserve">
<style type="text/css">
	.st0{fill:none;}
	.st1{fill:#899093;}
</style>
<path id="Path_386" class="st0" d="M0,0h24v24H0V0z"/>
<g id="Group_341" transform="translate(3.5 1)">
	<rect id="Rectangle_60" x="3.7" y="11.9" class="st1" width="9.2" height="1.8"/>
	<rect id="Rectangle_61" x="3.7" y="8.3" class="st1" width="7.3" height="1.8"/>
	<rect id="Rectangle_62" x="3.7" y="15.6" class="st1" width="9.2" height="1.8"/>
	<path id="Path_460" class="st1" d="M14.7,1.8h-1.8V0.9C12.9,0.4,12.5,0,12,0c-0.6,0-1,0.4-1,0.9v0.9H9.2V0.9C9.2,0.4,8.8,0,8.4,0
		H8.3c-0.5,0-0.9,0.3-1,0.8v0.1v0.9H5.5V0.9C5.5,0.4,5.2,0,4.7,0H4.6C4.1,0,3.7,0.3,3.7,0.8v0.1v0.9H1.8C0.8,1.8,0,2.7,0,3.7v16.5
		c0,1,0.8,1.8,1.8,1.8h12.8c1,0,1.8-0.8,1.8-1.8V3.7C16.5,2.7,15.7,1.8,14.7,1.8z M1.8,20.2V3.7h1.8v0.9c0,0.5,0.3,0.9,0.8,0.9h0.1
		c0.5,0,0.9-0.3,0.9-0.8V4.6V3.7h1.8v0.9c0,0.5,0.3,0.9,0.8,0.9h0.1C8.6,5.5,9,5.2,9,4.7V4.6V3.7h2v0.9c0,0.5,0.4,0.9,0.9,0.9
		s0.9-0.4,0.9-0.9V3.7h1.8v16.5H1.8z"/>
</g>
</svg>
