<?xml version="1.0" encoding="utf-8"?>
<!-- Generator: Adobe Illustrator 21.0.0, SVG Export Plug-In . SVG Version: 6.00 Build 0)  -->
<svg version="1.1" id="tunjanagan_kinerja" xmlns="http://www.w3.org/2000/svg" xmlns:xlink="http://www.w3.org/1999/xlink" x="0px"
	 y="0px" viewBox="0 0 24 24" style="enable-background:new 0 0 24 24;" xml:space="preserve">
<style type="text/css">
	.st0{fill:none;}
	.st1{fill:#899093;}
</style>
<path id="Path_386" class="st0" d="M0,0h24v24H0V0z"/>
<g id="Group_342" transform="translate(4 2)">
	<path id="Path_461" class="st1" d="M8.2,7.3v4.5h4.5C12.8,9.3,10.8,7.3,8.2,7.3L8.2,7.3z"/>
	<path id="Path_462" class="st1" d="M12.2,0H1.8C0.8,0,0,0.8,0,1.8v16.4c0,1,0.8,1.8,1.8,1.8h12.7c1,0,1.8-0.8,1.8-1.8v-14L12.2,0z
		 M1.8,18.2V1.8h9.1v3.6h3.6v12.7H1.8V18.2z"/>
	<path id="Path_463" class="st1" d="M6.4,8.5C4.8,9,3.7,10.6,3.6,12.3c0,2.2,1.8,4.1,4,4.1c1.7,0,3.3-1.1,3.9-2.7H6.4V8.5z"/>
</g>
</svg>
