<?xml version="1.0" encoding="utf-8"?>
<!-- Generator: Adobe Illustrator 22.1.0, SVG Export Plug-In . SVG Version: 6.00 Build 0)  -->
<svg version="1.1" id="Layer_1" xmlns="http://www.w3.org/2000/svg" xmlns:xlink="http://www.w3.org/1999/xlink" x="0px" y="0px"
	 viewBox="0 0 126 40" style="enable-background:new 0 0 126 40;" xml:space="preserve">
<style type="text/css">
	.st0{fill:#0984E3;}
</style>
<g>
	<rect x="43.1" y="9" class="st0" width="5.2" height="3.3"/>
	<rect x="43.2" y="14" class="st0" width="5" height="17.4"/>
	<path class="st0" d="M64.6,15.4c-1.2-1-3-1.4-5.4-1.4c-1.6,0-3.2,0.2-4.8,0.6c-1.4,0.3-2.7,0.7-4,1.3v15.5h5V18.7
		c0.4-0.2,0.8-0.3,1.2-0.4c0.5-0.1,1-0.2,1.5-0.2c2.2,0,3.3,1,3.3,2.9v10.4h5V20C66.4,17.9,65.9,16.3,64.6,15.4z"/>
	<path class="st0" d="M77.2,13.9c-2.3-0.2-4.6,0.7-6.3,2.4c-1.5,1.6-2.2,3.9-2.2,6.9c0,1.6,0.3,3.2,1.1,4.7c0.7,1.3,1.8,2.3,3,3
		c1.4,0.7,2.9,1.1,4.5,1.1c2.1,0,4.2-0.4,6.2-1.1v-4.3c-0.8,0.4-1.7,0.7-2.5,0.9c-0.8,0.2-1.6,0.3-2.4,0.3c-2.7,0-4.3-1.2-4.7-3.5
		H85C85.1,17.3,82.5,13.9,77.2,13.9z M73.8,21.1L73.8,21.1c0.3-2.3,1.4-3.4,3.2-3.4c0.8,0,1.6,0.2,2.1,0.8c0.6,0.7,0.9,1.7,1,2.6
		H73.8z"/>
	<path class="st0" d="M98.7,14.8L98.7,14.8c-1.2-0.7-2.6-1-3.9-0.8c-1,0-2,0.1-3,0.4c-1,0.2-1.9,0.5-2.8,0.9c-0.6,0.2-1.2,0.6-1.8,1
		v15.2h5V18.3c0.9-0.1,1.7-0.2,2.6-0.2c1.3,0,2.6,0.1,3.8,0.3V14.8z"/>
	<path class="st0" d="M100.9,13.9L100.9,13.9l0,17.7c0,1.5-0.7,2.3-2.1,2.3c-0.2,0-0.3,0-0.5-0.1v4.1c2,0.1,4-0.4,5.6-1.5
		c1.4-1,2.1-2.6,2.1-4.9l-0.1-17.6H100.9z"/>
	<rect x="100.9" y="9" class="st0" width="5.2" height="3.3"/>
	<path class="st0" d="M121.7,15.2c-1.6-0.9-3.3-1.3-5.1-1.3c-1.3,0-2.7,0.2-4,0.5c-1,0.2-1.9,0.5-2.8,1v4.5c0.7-0.6,1.5-1,2.4-1.2
		c1-0.3,2-0.5,3-0.5c2.5,0,3.8,1,3.8,2.9v1.1c-1.4-0.8-3-1.2-4.6-1.2c-1.6-0.1-3.3,0.4-4.6,1.4c-1.1,1-1.6,2.4-1.5,3.8
		c0,3.9,2.5,5.8,7.5,5.8c2.1,0.1,4.2-0.2,6.1-1c1.3-0.5,2.1-1.7,2.1-3l0.1-8C123.9,17.7,123.2,16.1,121.7,15.2z M119,27.3
		c0,0.4-0.3,0.8-0.7,1c-0.8,0.2-1.6,0.3-2.4,0.2c-0.7,0-1.3-0.2-1.9-0.6c-0.5-0.4-0.8-1-0.8-1.6c0-0.6,0.2-1.2,0.7-1.5
		c0.7-0.4,1.6-0.6,2.4-0.5c0.9,0,1.8,0.1,2.6,0.4L119,27.3z"/>
	<path class="st0" d="M10.7,8.5c-0.3-0.3-0.6-0.4-1-0.4c-0.9,0-1.4,0.5-1.5,1.6v0h3C11.2,9.3,11,8.9,10.7,8.5z"/>
	<path class="st0" d="M45.2,3.2h-7l-3,3c-2.7-2.6-6.4-4.1-10.5-4.1c-3.4,0-6.6,1.1-9.2,3.1c-1.4-1.4-3.4-2.2-5.5-2.2
		c-4.4,0-8,3.6-8,8c0,4.2,3.3,7.7,7.5,8c0.8,7.7,7.3,13.8,15.2,13.8c8.4,0,15.3-6.9,15.3-15.3c0-2.6-0.6-5.1-1.8-7.2L45.2,3.2z
		 M9.6,15c-0.7,0-1.3-0.2-1.9-0.5c-0.6-0.3-1.1-0.8-1.5-1.5c-0.4-0.7-0.5-1.5-0.5-2.3C5.6,9.6,6,8.4,6.8,7.5c0.8-0.8,1.9-1.2,3-1.2
		c1.4,0,2.4,0.5,3,1.5c0.3,0.5,0.5,1,0.6,1.7c0.1,0.5,0.2,1.2,0.1,1.8H8.1c0.2,1,1,1.6,1.9,1.7c0.1,0,0.3,0,0.4,0
		c0.4,0,0.8,0,1.2-0.2c0,0,0.1,0,0.1,0c0.4-0.1,0.8-0.3,1.1-0.4v2.1c-0.5,0.2-1.1,0.4-1.7,0.4C10.7,15,10.3,15,9.8,15
		C9.8,15,9.7,15,9.6,15z M38.5,17.4c0,2.8-0.8,5.3-2.2,7.5l-5.4-5.4L27.4,23l5.5,5.5c-2.3,1.7-5.1,2.7-8.2,2.7
		c-7.1,0-13-5.4-13.7-12.3c4-0.5,7-3.9,7-7.9c0-1.7-0.5-3.3-1.5-4.7c2.3-1.7,5.1-2.7,8.2-2.7c3.6,0,6.9,1.4,9.4,3.7L27.4,14
		l-0.8,0.8l-1.6,1.6V6.6h-5v21.7l7.4-7.4l9.7-9.7C38,13.1,38.5,15.2,38.5,17.4z"/>
</g>
</svg>
