<?xml version="1.0" encoding="utf-8"?>
<!-- Generator: Adobe Illustrator 22.1.0, SVG Export Plug-In . SVG Version: 6.00 Build 0)  -->
<svg version="1.1" id="alpha" xmlns="http://www.w3.org/2000/svg" xmlns:xlink="http://www.w3.org/1999/xlink" x="0px" y="0px"
	 viewBox="0 0 24 24" style="enable-background:new 0 0 24 24;" xml:space="preserve">
<style type="text/css">
	.st0{fill:#ffffff;}
</style>
<g>
	<path id="Path_478" class="st0" d="M16.5,16.7H9.4l-2.6,1.9v-1.9H3.9V8h8.7V6.1H3.9C2.9,6.1,2,6.9,2,8v8.7c0,1.1,0.9,1.9,1.9,1.9h1
		v3.9l5.1-3.9h6.5c1.1,0,1.9-0.9,1.9-1.9v-5.8h-1.9V16.7z"/>
	<path id="Path_479" class="st0" d="M22,2.9l-1.4-1.4l-2.2,2.2l-2.2-2.2l-1.4,1.4l2.2,2.2l-2.2,2.2l1.4,1.3l2.2-2.2l2.2,2.2L22,7.3
		l-2.2-2.2L22,2.9z"/>
</g>
</svg>
