<?xml version="1.0" encoding="utf-8"?>
<!-- Generator: Adobe Illustrator 22.1.0, SVG Export Plug-In . SVG Version: 6.00 Build 0)  -->
<svg version="1.1" id="Layer_1" xmlns="http://www.w3.org/2000/svg" xmlns:xlink="http://www.w3.org/1999/xlink" x="0px" y="0px"
	 viewBox="0 0 24 24" style="enable-background:new 0 0 24 24;" xml:space="preserve">
<style type="text/css">
	.st0{opacity:0.7;}
	.st1{fill:#ffffff;}
</style>
<g id="izin" class="st0">
	<path id="Path_23" class="st1" d="M14.8,14.7c-0.2,0-0.3,0-0.4-0.1c-0.3-0.1-0.6-0.5-0.6-0.8V12h-0.9v-1.8h1.8
		c0.5,0,0.9,0.3,0.9,0.8c0,0,0,0.1,0,0.1V12l2.2-1.6c0.2-0.1,0.4-0.2,0.5-0.2h2.8V3.7H12v2.8h-1.8V3.7c0-1,0.8-1.8,1.8-1.8h9.2
		c1,0,1.8,0.8,1.8,1.8v6.4c0,1-0.8,1.8-1.8,1.8h-2.5l-3.4,2.6C15.1,14.7,14.9,14.7,14.8,14.7z"/>
	<circle id="Ellipse_8" class="st1" cx="8.3" cy="11.1" r="3.7"/>
	<path id="Path_24" class="st1" d="M8.3,15.7C4,15.7,1,18,1,21.2v0.9h14.7v-0.9C15.7,18,12.6,15.7,8.3,15.7z"/>
</g>
</svg>
